<svg width="18" height="28" viewBox="0 0 18 28" fill="none" xmlns="http://www.w3.org/2000/svg">
<path opacity="0.4" d="M9 10.9375C12.003 10.9375 14.4375 8.50305 14.4375 5.5C14.4375 2.49695 12.003 0.0625 9 0.0625C5.99695 0.0625 3.5625 2.49695 3.5625 5.5C3.5625 8.50305 5.99695 10.9375 9 10.9375Z" fill="white"/>
<path d="M9 10.9375V0.0625C11.9981 0.0625 14.4375 2.50187 14.4375 5.5C14.4375 8.49813 11.9981 10.9375 9 10.9375Z" fill="white"/>
<path opacity="0.4" d="M17.4375 20.6262V25.7488C17.4375 26.9556 16.4556 27.9375 15.2488 27.9375H2.75125C1.54438 27.9375 0.5625 26.9556 0.5625 25.7488V20.6262C0.5625 16.4556 3.95563 13.0625 8.12625 13.0625H9.87375C14.0444 13.0625 17.4375 16.4556 17.4375 20.6262Z" fill="white"/>
<path d="M17.4375 20.6262V25.7488C17.4375 26.9556 16.4556 27.9375 15.2488 27.9375H9V13.0625H9.87375C14.0444 13.0625 17.4375 16.4556 17.4375 20.6262Z" fill="white"/>
</svg>
